<svg width="99" height="29" viewBox="0 0 99 29" fill="none" xmlns="http://www.w3.org/2000/svg">
<path fill-rule="evenodd" clip-rule="evenodd" d="M24.8 14.0022C24.8 16.6427 24.24 18.963 23.12 21.0434C22 23.1237 20.56 24.7239 18.8 25.7641C17.36 26.7243 15.76 27.2844 14.08 27.6044C12.4 27.8444 10.56 28.0045 8.64 28.0045H0V0H8.64C10.56 0 12.4 0.160026 14.16 0.400064C15.84 0.640102 17.44 1.2802 18.96 2.24036C20.8 3.44055 22.24 5.0408 23.28 7.04112C24.24 8.96143 24.8 11.3618 24.8 14.0022ZM36.8 28.0045L43.2 18.0829V9.60153L36.8 0V9.92158H28V0H20.8V3.04049C22.08 4.08065 23.2 5.36086 24 6.96111C25.04 8.96143 25.6 11.2818 25.6 14.0022C25.6 16.6427 25.04 18.963 23.92 21.0434C23.04 22.5636 22 23.8438 20.8 24.884V28.0045H28V16.2426H36.8V28.0045ZM50.8 18.0829L56.08 28.0045H64L54.32 13.5222L64 0H56.08L50.8 8.1613L45.52 0H37.6L46.4 13.5222L37.6 28.0045H45.52L50.8 18.0829ZM14.0793 6.24273C15.3593 6.96284 16.3193 8.00301 16.9593 9.28321C17.5993 10.5634 17.9193 12.1637 17.9993 13.924C17.9993 15.8443 17.6793 17.3645 17.1193 18.6447C16.4793 19.9249 15.5993 20.9651 14.4793 21.6852C13.5193 22.3253 12.4793 22.6453 11.4393 22.7254C10.3193 22.8054 9.0393 22.8054 7.4393 22.8054H7.2793V5.28257H7.4393C8.8793 5.28257 10.0793 5.28257 11.1193 5.36259C12.1593 5.4426 13.1193 5.68264 14.0793 6.24273Z" fill="#2095F3"/>
<path d="M86.3105 2.92541e-06L82.5 6.46625L78.6895 2.92541e-06H66L82.5 28L99 2.92541e-06H86.3105Z" fill="#41B883"/>
<path d="M86.3105 1.418e-06L82.5 6.46625L78.6895 1.418e-06H72.6L82.5 16.7997L92.4 1.418e-06H86.3105Z" fill="#34495E"/>
</svg>
